<svg width="27" height="26" viewBox="0 0 27 26" fill="none" xmlns="http://www.w3.org/2000/svg">
<path d="M14.1597 2.4375L3.30597 5.43197C3.30597 5.43197 1.3125 5.37591 1.3125 7.49328C1.3125 8.36713 1.70006 9.01834 1.70006 9.01834L9.96887 22.8479C10.7594 24.1073 12.4385 23.3188 12.4385 23.3188L25.1179 17.1417L24.6434 16.6603C24.5317 16.0822 24.4667 15.0118 25.2516 14.2147C25.2691 14.1968 25.2723 14.1724 25.2817 14.1501L25.6875 13.9872L14.1597 2.4375ZM4.57103 5.92556L13.9193 3.34669L24.2445 13.6914L12.3857 18.4584L4.57103 5.92556ZM24.2299 15.4948C24.2035 15.6817 24.1901 15.8637 24.1929 16.0343L15.8693 19.9851L24.2226 16.4401C24.2307 16.5047 24.238 16.5697 24.2482 16.6282L13.578 21.7819L24.3323 17.0125L24.3388 17.0377L12.4385 22.7305C12.4328 22.7342 11.8896 23.023 11.3452 23.023C10.8074 23.023 10.4722 22.7467 10.3195 22.1788C9.92663 20.7196 12.1586 19.8924 12.1923 19.8803L24.5354 14.5401C24.4468 14.7026 24.3855 14.8679 24.3343 15.0329L16.4989 18.7212L24.2299 15.4948Z" fill="#303030"/>
<path d="M14.4966 5.07489L6.47559 7.44658L8.43209 10.5243L16.7159 7.49086L14.4966 5.07489Z" fill="#303030"/>
</svg>
