<svg width="25" height="24" viewBox="0 0 25 24" fill="none" xmlns="http://www.w3.org/2000/svg">
<path d="M18.1639 15.8967H17.2372L16.9087 15.5801C17.6418 14.7289 18.1776 13.7263 18.4778 12.644C18.7779 11.5617 18.835 10.4264 18.6449 9.31949C18.0935 6.0602 15.3719 3.45746 12.0873 3.05884C10.9325 2.91284 9.7596 3.03278 8.65835 3.4095C7.55709 3.78621 6.55665 4.40971 5.7336 5.23229C4.91054 6.05486 4.28667 7.05471 3.90974 8.15532C3.5328 9.25593 3.41279 10.4281 3.55888 11.5822C3.95773 14.865 6.562 17.585 9.8232 18.136C10.9308 18.326 12.0667 18.2689 13.1496 17.969C14.2326 17.669 15.2358 17.1335 16.0875 16.4008L16.4043 16.7291V17.6553L21.3899 22.638C21.8709 23.1187 22.6568 23.1187 23.1378 22.638C23.6188 22.1573 23.6188 21.3718 23.1378 20.8911L18.1639 15.8967ZM11.1253 15.8967C8.20433 15.8967 5.84641 13.5402 5.84641 10.6209C5.84641 7.70157 8.20433 5.34503 11.1253 5.34503C14.0463 5.34503 16.4043 7.70157 16.4043 10.6209C16.4043 13.5402 14.0463 15.8967 11.1253 15.8967Z" fill="#303030"/>
</svg>
