<svg width="24" height="24" viewBox="0 0 24 24" fill="none" xmlns="http://www.w3.org/2000/svg">
<g clip-path="url(#clip0_26_226)">
<path d="M21.4677 9.08325C21.8326 8.09775 21.9379 7.158 21.6758 6.31463C21.5551 6.3255 21.4298 6.33112 21.3016 6.33112C17.4608 6.33112 10.6726 1.50225 10.1588 0.75C8.04193 3.83362 3.60493 6.20438 1.59943 8.86312C0.787928 9.939 0.382178 10.7396 1.18955 11.9704L9.64543 22.8353C10.0268 23.3516 10.7742 23.3936 11.3063 22.9174C11.3063 22.9174 18.2408 14.019 23.2504 11.2657C22.8739 10.5304 22.2473 9.7965 21.4677 9.08325ZM9.49805 20.5328L9.4628 20.5571L9.43093 20.5849C9.30167 20.7008 9.18685 20.8319 9.08893 20.9753L1.76218 11.5616C1.23455 10.7452 1.38418 10.3155 2.1608 9.2865C3.04168 8.11912 4.44943 6.98588 5.94005 5.78625C7.48955 4.539 9.08555 3.255 10.2578 1.794C12.1928 3.38625 17.6052 6.90187 21.1073 7.0305C21.5273 11.1544 12.9766 18.1065 9.49805 20.5328Z" fill="#303030"/>
<path d="M7.49742 5.30927L16.9493 12.7155L17.286 12.414L7.74342 5.08877L7.49742 5.30927ZM10.5777 9.25164L6.70917 6.01464C6.70917 6.01464 5.36292 6.87414 3.73242 8.75927L7.16442 12.3075L10.5777 9.25164ZM2.10229 10.5225L9.40279 19.4704L10.7509 18.264L2.96742 9.36489C2.96742 9.36489 2.28904 9.73202 2.10229 10.5225ZM10.2825 11.0355L14.5234 14.8868L15.8708 13.6804L11.4552 9.98589L10.2825 11.0355ZM7.9373 13.1351L11.8287 17.2991L13.1757 16.0931L9.10992 12.0855L7.9373 13.1351ZM10.4464 4.03352L9.87455 5.63927L10.233 5.90027L12.0537 4.27014L11.6974 4.04589L10.443 5.16902L10.9977 3.60377L10.6257 3.36902L8.89055 4.92227L9.20142 5.14839L10.4464 4.03352ZM12.0045 7.19214L12.3518 6.88052L11.2924 6.12752L11.7728 5.69777L12.7137 6.34202L13.0478 6.04239L12.0964 5.40714L12.4932 5.05239L13.5465 5.73377L13.8885 5.42814L12.432 4.50864L10.5878 6.15977L12.0045 7.19214ZM13.1329 8.01414L14.5725 7.14227L15.0439 6.84377L14.7312 7.24802L13.8049 8.50464L14.2523 8.83052L17.0228 7.40589L16.497 7.07402L14.9779 7.94327L14.5902 8.17802L14.8504 7.83564L15.7508 6.60302L15.2453 6.28427L13.8409 7.15464L13.4678 7.39052L13.7247 7.06389L14.5752 5.86127L14.1012 5.56202L12.7283 7.71939L13.1329 8.01414ZM18.3402 8.13939C17.9993 7.92527 17.6809 7.82289 17.3832 7.82889C17.0877 7.83527 16.8454 7.92414 16.6545 8.09514C16.4449 8.28264 16.3744 8.47727 16.4434 8.67902C16.4839 8.80014 16.6129 8.97527 16.833 9.20702L17.0607 9.44627C17.1964 9.58727 17.2838 9.70277 17.322 9.79127C17.3595 9.88089 17.3412 9.95927 17.2673 10.0253C17.1409 10.1381 16.9763 10.1595 16.7742 10.0905C16.6485 10.0429 16.5301 9.97785 16.4224 9.89739C16.2087 9.74514 16.1048 9.59852 16.1074 9.45714C16.1089 9.37989 16.1513 9.29139 16.2342 9.19164L15.7425 8.84889C15.5209 9.04727 15.4369 9.26852 15.4924 9.51414C15.5483 9.76202 15.7384 10.0065 16.0684 10.2473C16.3973 10.4884 16.7247 10.6174 17.0464 10.6316C17.3715 10.6455 17.6393 10.56 17.8455 10.3744C18.048 10.1936 18.12 9.99939 18.0623 9.79277C18.0255 9.66039 17.9224 9.50627 17.7559 9.33077L17.3828 8.93702C17.2407 8.78852 17.1559 8.68539 17.127 8.62652C17.082 8.53689 17.0982 8.45777 17.1758 8.38877C17.2602 8.31302 17.3682 8.28227 17.5002 8.29539C17.634 8.30852 17.7735 8.36214 17.9194 8.45589C18.0518 8.54139 18.1452 8.62989 18.1973 8.72139C18.2779 8.85939 18.2554 8.99252 18.1317 9.11889L18.6855 9.48377C18.9158 9.26177 18.9878 9.02664 18.9019 8.77952C18.8179 8.53464 18.63 8.32089 18.3402 8.13939Z" fill="#303030"/>
</g>
<defs>
<clipPath id="clip0_26_226">
<rect width="24" height="24" fill="white"/>
</clipPath>
</defs>
</svg>
