<svg width="25" height="25" viewBox="0 0 25 25" fill="none" xmlns="http://www.w3.org/2000/svg">
<path d="M18.5 16.58C17.74 16.58 17.06 16.88 16.54 17.35L9.41 13.2C9.46 12.97 9.5 12.74 9.5 12.5C9.5 12.26 9.46 12.03 9.41 11.8L16.46 7.69C17 8.19 17.71 8.5 18.5 8.5C20.16 8.5 21.5 7.16 21.5 5.5C21.5 3.84 20.16 2.5 18.5 2.5C16.84 2.5 15.5 3.84 15.5 5.5C15.5 5.74 15.54 5.97 15.59 6.2L8.54 10.31C8 9.81 7.29 9.5 6.5 9.5C4.84 9.5 3.5 10.84 3.5 12.5C3.5 14.16 4.84 15.5 6.5 15.5C7.29 15.5 8 15.19 8.54 14.69L15.66 18.85C15.61 19.06 15.58 19.28 15.58 19.5C15.58 21.11 16.89 22.42 18.5 22.42C20.11 22.42 21.42 21.11 21.42 19.5C21.42 17.89 20.11 16.58 18.5 16.58ZM18.5 4.5C19.05 4.5 19.5 4.95 19.5 5.5C19.5 6.05 19.05 6.5 18.5 6.5C17.95 6.5 17.5 6.05 17.5 5.5C17.5 4.95 17.95 4.5 18.5 4.5ZM6.5 13.5C5.95 13.5 5.5 13.05 5.5 12.5C5.5 11.95 5.95 11.5 6.5 11.5C7.05 11.5 7.5 11.95 7.5 12.5C7.5 13.05 7.05 13.5 6.5 13.5ZM18.5 20.52C17.95 20.52 17.5 20.07 17.5 19.52C17.5 18.97 17.95 18.52 18.5 18.52C19.05 18.52 19.5 18.97 19.5 19.52C19.5 20.07 19.05 20.52 18.5 20.52Z" fill="#303030"/>
</svg>
