<svg width="30" height="24" viewBox="0 0 30 24" fill="none" xmlns="http://www.w3.org/2000/svg">
<path d="M25.4667 15.625V4.375C25.4667 4.27344 25.4287 4.18555 25.3529 4.11133C25.277 4.03711 25.1872 4 25.0833 4H5.91667C5.81285 4 5.723 4.03711 5.64714 4.11133C5.57127 4.18555 5.53333 4.27344 5.53333 4.375V15.625C5.53333 15.7266 5.57127 15.8145 5.64714 15.8887C5.723 15.9629 5.81285 16 5.91667 16H25.0833C25.1872 16 25.277 15.9629 25.3529 15.8887C25.4287 15.8145 25.4667 15.7266 25.4667 15.625ZM27 4.375V15.625C27 16.1406 26.8123 16.582 26.437 16.9492C26.0616 17.3164 25.6104 17.5 25.0833 17.5H16.2667V19H20.4833C20.5951 19 20.687 19.0352 20.7589 19.1055C20.8307 19.1758 20.8667 19.2656 20.8667 19.375V20.125C20.8667 20.2344 20.8307 20.3242 20.7589 20.3945C20.687 20.4648 20.5951 20.5 20.4833 20.5H10.5167C10.4049 20.5 10.313 20.4648 10.2411 20.3945C10.1693 20.3242 10.1333 20.2344 10.1333 20.125V19.375C10.1333 19.2656 10.1693 19.1758 10.2411 19.1055C10.313 19.0352 10.4049 19 10.5167 19H14.7333V17.5H5.91667C5.38958 17.5 4.93837 17.3164 4.56302 16.9492C4.18767 16.582 4 16.1406 4 15.625V4.375C4 3.85938 4.18767 3.41797 4.56302 3.05078C4.93837 2.68359 5.38958 2.5 5.91667 2.5H25.0833C25.6104 2.5 26.0616 2.68359 26.437 3.05078C26.8123 3.41797 27 3.85938 27 4.375Z" fill="#303030"/>
</svg>
