<svg width="28" height="17" viewBox="0 0 28 17" fill="none" xmlns="http://www.w3.org/2000/svg">
<path d="M7.46667 0C4.38667 0 1.86667 2.52 1.86667 5.6C1.86667 7.45173 2.77853 9.1 4.17107 10.1211C1.70987 11.3419 0 13.8731 0 16.8H1.86667C1.86667 13.6976 4.36427 11.2 7.46667 11.2C10.5691 11.2 13.0667 13.6976 13.0667 16.8H14.9333C14.9333 13.6976 17.4309 11.2 20.5333 11.2C23.6357 11.2 26.1333 13.6976 26.1333 16.8H28C28 13.8721 26.2901 11.3419 23.8289 10.1211C24.5415 9.60181 25.1216 8.92178 25.522 8.13622C25.9224 7.35066 26.1319 6.48172 26.1333 5.6C26.1333 2.52 23.6133 0 20.5333 0C17.4533 0 14.9333 2.52 14.9333 5.6C14.9333 7.45173 15.8452 9.1 17.2377 10.1211C15.8741 10.7915 14.7453 11.8591 14 13.1833C13.2547 11.8591 12.1259 10.7915 10.7623 10.1211C11.4749 9.60181 12.0549 8.92178 12.4553 8.13622C12.8557 7.35066 13.0652 6.48172 13.0667 5.6C13.0667 2.52 10.5467 0 7.46667 0ZM7.46667 1.86667C9.54147 1.86667 11.2 3.5252 11.2 5.6C11.2 7.6748 9.54147 9.33333 7.46667 9.33333C5.39187 9.33333 3.73333 7.6748 3.73333 5.6C3.73333 3.5252 5.39187 1.86667 7.46667 1.86667ZM20.5333 1.86667C22.6081 1.86667 24.2667 3.5252 24.2667 5.6C24.2667 7.6748 22.6081 9.33333 20.5333 9.33333C18.4585 9.33333 16.8 7.6748 16.8 5.6C16.8 3.5252 18.4585 1.86667 20.5333 1.86667Z" fill="#303030"/>
</svg>
